<mxfile host="app.diagrams.net" modified="2020-11-10T16:53:47.555Z" agent="5.0 (Macintosh; Intel Mac OS X 10_15_7) AppleWebKit/537.36 (KHTML, like Gecko) Chrome/86.0.4240.80 Safari/537.36" etag="upcKqHrItgOxHNKYyYM3" version="13.8.7" type="github">
  <diagram id="juzcoO5aMXoIAjG5bAuT" name="Page-1">
    <mxGraphModel dx="728" dy="665" grid="1" gridSize="10" guides="1" tooltips="1" connect="1" arrows="1" fold="1" page="1" pageScale="1" pageWidth="850" pageHeight="1100" math="0" shadow="0">
      <root>
        <mxCell id="0" />
        <mxCell id="1" parent="0" />
        <mxCell id="K4UiaTiZzuQG-6o3cde9-1" value="SubnetEntity" style="swimlane;fontStyle=0;childLayout=stackLayout;horizontal=1;startSize=26;fillColor=none;horizontalStack=0;resizeParent=1;resizeParentMax=0;resizeLast=0;collapsible=1;marginBottom=0;" parent="1" vertex="1">
          <mxGeometry x="290" y="120" width="230" height="866" as="geometry">
            <mxRectangle x="290" y="120" width="80" height="26" as="alternateBounds" />
          </mxGeometry>
        </mxCell>
        <mxCell id="K4UiaTiZzuQG-6o3cde9-4" value="+ network_id: String&#xa;" style="text;strokeColor=none;fillColor=none;align=left;verticalAlign=top;spacingLeft=4;spacingRight=4;overflow=hidden;rotatable=0;points=[[0,0.5],[1,0.5]];portConstraint=eastwest;" parent="K4UiaTiZzuQG-6o3cde9-1" vertex="1">
          <mxGeometry y="26" width="230" height="22" as="geometry" />
        </mxCell>
        <mxCell id="K4UiaTiZzuQG-6o3cde9-2" value="+ cidr: String" style="text;strokeColor=none;fillColor=none;align=left;verticalAlign=top;spacingLeft=4;spacingRight=4;overflow=hidden;rotatable=0;points=[[0,0.5],[1,0.5]];portConstraint=eastwest;" parent="K4UiaTiZzuQG-6o3cde9-1" vertex="1">
          <mxGeometry y="48" width="230" height="26" as="geometry" />
        </mxCell>
        <mxCell id="K4UiaTiZzuQG-6o3cde9-18" value="+ availability_zone: String&#xa;" style="text;strokeColor=none;fillColor=none;align=left;verticalAlign=top;spacingLeft=4;spacingRight=4;overflow=hidden;rotatable=0;points=[[0,0.5],[1,0.5]];portConstraint=eastwest;" parent="K4UiaTiZzuQG-6o3cde9-1" vertex="1">
          <mxGeometry y="74" width="230" height="22" as="geometry" />
        </mxCell>
        <mxCell id="K4UiaTiZzuQG-6o3cde9-17" value="+ gateway_ip: String&#xa;" style="text;strokeColor=none;fillColor=none;align=left;verticalAlign=top;spacingLeft=4;spacingRight=4;overflow=hidden;rotatable=0;points=[[0,0.5],[1,0.5]];portConstraint=eastwest;" parent="K4UiaTiZzuQG-6o3cde9-1" vertex="1">
          <mxGeometry y="96" width="230" height="22" as="geometry" />
        </mxCell>
        <mxCell id="K4UiaTiZzuQG-6o3cde9-5" value="+ port_id: String&#xa;" style="text;strokeColor=none;fillColor=none;align=left;verticalAlign=top;spacingLeft=4;spacingRight=4;overflow=hidden;rotatable=0;points=[[0,0.5],[1,0.5]];portConstraint=eastwest;" parent="K4UiaTiZzuQG-6o3cde9-1" vertex="1">
          <mxGeometry y="118" width="230" height="22" as="geometry" />
        </mxCell>
        <mxCell id="K4UiaTiZzuQG-6o3cde9-6" value="+ attached_router_id: String&#xa;" style="text;strokeColor=none;fillColor=none;align=left;verticalAlign=top;spacingLeft=4;spacingRight=4;overflow=hidden;rotatable=0;points=[[0,0.5],[1,0.5]];portConstraint=eastwest;" parent="K4UiaTiZzuQG-6o3cde9-1" vertex="1">
          <mxGeometry y="140" width="230" height="22" as="geometry" />
        </mxCell>
        <mxCell id="K4UiaTiZzuQG-6o3cde9-7" value="+ port_detail: PortEntity&#xa;" style="text;strokeColor=none;fillColor=none;align=left;verticalAlign=top;spacingLeft=4;spacingRight=4;overflow=hidden;rotatable=0;points=[[0,0.5],[1,0.5]];portConstraint=eastwest;" parent="K4UiaTiZzuQG-6o3cde9-1" vertex="1">
          <mxGeometry y="162" width="230" height="22" as="geometry" />
        </mxCell>
        <mxCell id="K4UiaTiZzuQG-6o3cde9-19" value="+ enable_dhcp: Boolean&#xa;" style="text;strokeColor=none;fillColor=none;align=left;verticalAlign=top;spacingLeft=4;spacingRight=4;overflow=hidden;rotatable=0;points=[[0,0.5],[1,0.5]];portConstraint=eastwest;" parent="K4UiaTiZzuQG-6o3cde9-1" vertex="1">
          <mxGeometry y="184" width="230" height="22" as="geometry" />
        </mxCell>
        <mxCell id="K4UiaTiZzuQG-6o3cde9-8" value="+ primary_dns: String&#xa;" style="text;strokeColor=none;fillColor=none;align=left;verticalAlign=top;spacingLeft=4;spacingRight=4;overflow=hidden;rotatable=0;points=[[0,0.5],[1,0.5]];portConstraint=eastwest;" parent="K4UiaTiZzuQG-6o3cde9-1" vertex="1">
          <mxGeometry y="206" width="230" height="22" as="geometry" />
        </mxCell>
        <mxCell id="K4UiaTiZzuQG-6o3cde9-9" value="+ secondary_dns: String&#xa;" style="text;strokeColor=none;fillColor=none;align=left;verticalAlign=top;spacingLeft=4;spacingRight=4;overflow=hidden;rotatable=0;points=[[0,0.5],[1,0.5]];portConstraint=eastwest;" parent="K4UiaTiZzuQG-6o3cde9-1" vertex="1">
          <mxGeometry y="228" width="230" height="22" as="geometry" />
        </mxCell>
        <mxCell id="K4UiaTiZzuQG-6o3cde9-10" value="+ routes: List&lt;RouteEntity&gt;&#xa;" style="text;strokeColor=none;fillColor=none;align=left;verticalAlign=top;spacingLeft=4;spacingRight=4;overflow=hidden;rotatable=0;points=[[0,0.5],[1,0.5]];portConstraint=eastwest;" parent="K4UiaTiZzuQG-6o3cde9-1" vertex="1">
          <mxGeometry y="250" width="230" height="22" as="geometry" />
        </mxCell>
        <mxCell id="K4UiaTiZzuQG-6o3cde9-11" value="+ gateway_macAddress: String&#xa;" style="text;strokeColor=none;fillColor=none;align=left;verticalAlign=top;spacingLeft=4;spacingRight=4;overflow=hidden;rotatable=0;points=[[0,0.5],[1,0.5]];portConstraint=eastwest;" parent="K4UiaTiZzuQG-6o3cde9-1" vertex="1">
          <mxGeometry y="272" width="230" height="22" as="geometry" />
        </mxCell>
        <mxCell id="K4UiaTiZzuQG-6o3cde9-12" value="+ dns_list: List&lt;String&gt;" style="text;strokeColor=none;fillColor=none;align=left;verticalAlign=top;spacingLeft=4;spacingRight=4;overflow=hidden;rotatable=0;points=[[0,0.5],[1,0.5]];portConstraint=eastwest;" parent="K4UiaTiZzuQG-6o3cde9-1" vertex="1">
          <mxGeometry y="294" width="230" height="22" as="geometry" />
        </mxCell>
        <mxCell id="K4UiaTiZzuQG-6o3cde9-13" value="+ ip_version: Integer&#xa;" style="text;strokeColor=none;fillColor=none;align=left;verticalAlign=top;spacingLeft=4;spacingRight=4;overflow=hidden;rotatable=0;points=[[0,0.5],[1,0.5]];portConstraint=eastwest;" parent="K4UiaTiZzuQG-6o3cde9-1" vertex="1">
          <mxGeometry y="316" width="230" height="22" as="geometry" />
        </mxCell>
        <mxCell id="K4UiaTiZzuQG-6o3cde9-14" value="+ ipV4_rangeId: String&#xa;" style="text;strokeColor=none;fillColor=none;align=left;verticalAlign=top;spacingLeft=4;spacingRight=4;overflow=hidden;rotatable=0;points=[[0,0.5],[1,0.5]];portConstraint=eastwest;" parent="K4UiaTiZzuQG-6o3cde9-1" vertex="1">
          <mxGeometry y="338" width="230" height="22" as="geometry" />
        </mxCell>
        <mxCell id="K4UiaTiZzuQG-6o3cde9-15" value="+ ipV6_rangeId: String&#xa;" style="text;strokeColor=none;fillColor=none;align=left;verticalAlign=top;spacingLeft=4;spacingRight=4;overflow=hidden;rotatable=0;points=[[0,0.5],[1,0.5]];portConstraint=eastwest;" parent="K4UiaTiZzuQG-6o3cde9-1" vertex="1">
          <mxGeometry y="360" width="230" height="22" as="geometry" />
        </mxCell>
        <mxCell id="K4UiaTiZzuQG-6o3cde9-16" value="+ ipv6_address_mode: String&#xa;" style="text;strokeColor=none;fillColor=none;align=left;verticalAlign=top;spacingLeft=4;spacingRight=4;overflow=hidden;rotatable=0;points=[[0,0.5],[1,0.5]];portConstraint=eastwest;" parent="K4UiaTiZzuQG-6o3cde9-1" vertex="1">
          <mxGeometry y="382" width="230" height="22" as="geometry" />
        </mxCell>
        <mxCell id="K4UiaTiZzuQG-6o3cde9-20" value="+ ipv6_ra_mode: String&#xa;" style="text;strokeColor=none;fillColor=none;align=left;verticalAlign=top;spacingLeft=4;spacingRight=4;overflow=hidden;rotatable=0;points=[[0,0.5],[1,0.5]];portConstraint=eastwest;" parent="K4UiaTiZzuQG-6o3cde9-1" vertex="1">
          <mxGeometry y="404" width="230" height="22" as="geometry" />
        </mxCell>
        <mxCell id="K4UiaTiZzuQG-6o3cde9-21" value="+ revision_number: Integer&#xa;" style="text;strokeColor=none;fillColor=none;align=left;verticalAlign=top;spacingLeft=4;spacingRight=4;overflow=hidden;rotatable=0;points=[[0,0.5],[1,0.5]];portConstraint=eastwest;" parent="K4UiaTiZzuQG-6o3cde9-1" vertex="1">
          <mxGeometry y="426" width="230" height="22" as="geometry" />
        </mxCell>
        <mxCell id="K4UiaTiZzuQG-6o3cde9-26" value="+ segment_id: String&#xa;" style="text;strokeColor=none;fillColor=none;align=left;verticalAlign=top;spacingLeft=4;spacingRight=4;overflow=hidden;rotatable=0;points=[[0,0.5],[1,0.5]];portConstraint=eastwest;" parent="K4UiaTiZzuQG-6o3cde9-1" vertex="1">
          <mxGeometry y="448" width="230" height="22" as="geometry" />
        </mxCell>
        <mxCell id="K4UiaTiZzuQG-6o3cde9-25" value="+ shared: Boolean&#xa;" style="text;strokeColor=none;fillColor=none;align=left;verticalAlign=top;spacingLeft=4;spacingRight=4;overflow=hidden;rotatable=0;points=[[0,0.5],[1,0.5]];portConstraint=eastwest;" parent="K4UiaTiZzuQG-6o3cde9-1" vertex="1">
          <mxGeometry y="470" width="230" height="22" as="geometry" />
        </mxCell>
        <mxCell id="K4UiaTiZzuQG-6o3cde9-27" value="+ sort_dir: String" style="text;strokeColor=none;fillColor=none;align=left;verticalAlign=top;spacingLeft=4;spacingRight=4;overflow=hidden;rotatable=0;points=[[0,0.5],[1,0.5]];portConstraint=eastwest;" parent="K4UiaTiZzuQG-6o3cde9-1" vertex="1">
          <mxGeometry y="492" width="230" height="22" as="geometry" />
        </mxCell>
        <mxCell id="xZllou36-TDd7HDFL2I0-1" value="+ sort_key: String" style="text;strokeColor=none;fillColor=none;align=left;verticalAlign=top;spacingLeft=4;spacingRight=4;overflow=hidden;rotatable=0;points=[[0,0.5],[1,0.5]];portConstraint=eastwest;" vertex="1" parent="K4UiaTiZzuQG-6o3cde9-1">
          <mxGeometry y="514" width="230" height="22" as="geometry" />
        </mxCell>
        <mxCell id="K4UiaTiZzuQG-6o3cde9-28" value="+ subnetpool_id: String" style="text;strokeColor=none;fillColor=none;align=left;verticalAlign=top;spacingLeft=4;spacingRight=4;overflow=hidden;rotatable=0;points=[[0,0.5],[1,0.5]];portConstraint=eastwest;" parent="K4UiaTiZzuQG-6o3cde9-1" vertex="1">
          <mxGeometry y="536" width="230" height="22" as="geometry" />
        </mxCell>
        <mxCell id="xZllou36-TDd7HDFL2I0-2" value="+ dns_publish_fixed_ip: Boolean&#xa;" style="text;strokeColor=none;fillColor=none;align=left;verticalAlign=top;spacingLeft=4;spacingRight=4;overflow=hidden;rotatable=0;points=[[0,0.5],[1,0.5]];portConstraint=eastwest;" vertex="1" parent="K4UiaTiZzuQG-6o3cde9-1">
          <mxGeometry y="558" width="230" height="22" as="geometry" />
        </mxCell>
        <mxCell id="K4UiaTiZzuQG-6o3cde9-22" value="+ tags: List&lt;String&gt;&#xa;" style="text;strokeColor=none;fillColor=none;align=left;verticalAlign=top;spacingLeft=4;spacingRight=4;overflow=hidden;rotatable=0;points=[[0,0.5],[1,0.5]];portConstraint=eastwest;" parent="K4UiaTiZzuQG-6o3cde9-1" vertex="1">
          <mxGeometry y="580" width="230" height="22" as="geometry" />
        </mxCell>
        <mxCell id="xZllou36-TDd7HDFL2I0-3" value="+ tags-any: String&#xa;" style="text;strokeColor=none;fillColor=none;align=left;verticalAlign=top;spacingLeft=4;spacingRight=4;overflow=hidden;rotatable=0;points=[[0,0.5],[1,0.5]];portConstraint=eastwest;" vertex="1" parent="K4UiaTiZzuQG-6o3cde9-1">
          <mxGeometry y="602" width="230" height="22" as="geometry" />
        </mxCell>
        <mxCell id="xZllou36-TDd7HDFL2I0-4" value="+ not-tags: String&#xa;" style="text;strokeColor=none;fillColor=none;align=left;verticalAlign=top;spacingLeft=4;spacingRight=4;overflow=hidden;rotatable=0;points=[[0,0.5],[1,0.5]];portConstraint=eastwest;" vertex="1" parent="K4UiaTiZzuQG-6o3cde9-1">
          <mxGeometry y="624" width="230" height="22" as="geometry" />
        </mxCell>
        <mxCell id="xZllou36-TDd7HDFL2I0-5" value="+ not-tags-any: String&#xa;" style="text;strokeColor=none;fillColor=none;align=left;verticalAlign=top;spacingLeft=4;spacingRight=4;overflow=hidden;rotatable=0;points=[[0,0.5],[1,0.5]];portConstraint=eastwest;" vertex="1" parent="K4UiaTiZzuQG-6o3cde9-1">
          <mxGeometry y="646" width="230" height="22" as="geometry" />
        </mxCell>
        <mxCell id="xZllou36-TDd7HDFL2I0-6" value="+ fields: String&#xa;" style="text;strokeColor=none;fillColor=none;align=left;verticalAlign=top;spacingLeft=4;spacingRight=4;overflow=hidden;rotatable=0;points=[[0,0.5],[1,0.5]];portConstraint=eastwest;" vertex="1" parent="K4UiaTiZzuQG-6o3cde9-1">
          <mxGeometry y="668" width="230" height="22" as="geometry" />
        </mxCell>
        <mxCell id="xZllou36-TDd7HDFL2I0-7" value="+ dns_nameservers: List&lt;String&gt;&#xa;" style="text;strokeColor=none;fillColor=none;align=left;verticalAlign=top;spacingLeft=4;spacingRight=4;overflow=hidden;rotatable=0;points=[[0,0.5],[1,0.5]];portConstraint=eastwest;" vertex="1" parent="K4UiaTiZzuQG-6o3cde9-1">
          <mxGeometry y="690" width="230" height="22" as="geometry" />
        </mxCell>
        <mxCell id="xZllou36-TDd7HDFL2I0-8" value="+ allocation_pools: List&lt;AllocationPool&gt;&#xa;" style="text;strokeColor=none;fillColor=none;align=left;verticalAlign=top;spacingLeft=4;spacingRight=4;overflow=hidden;rotatable=0;points=[[0,0.5],[1,0.5]];portConstraint=eastwest;" vertex="1" parent="K4UiaTiZzuQG-6o3cde9-1">
          <mxGeometry y="712" width="230" height="22" as="geometry" />
        </mxCell>
        <mxCell id="xZllou36-TDd7HDFL2I0-9" value="+ host_routes: List&lt;HostRoute&gt;&#xa;" style="text;strokeColor=none;fillColor=none;align=left;verticalAlign=top;spacingLeft=4;spacingRight=4;overflow=hidden;rotatable=0;points=[[0,0.5],[1,0.5]];portConstraint=eastwest;" vertex="1" parent="K4UiaTiZzuQG-6o3cde9-1">
          <mxGeometry y="734" width="230" height="22" as="geometry" />
        </mxCell>
        <mxCell id="xZllou36-TDd7HDFL2I0-10" value="+ prefixlen: Integer&#xa;" style="text;strokeColor=none;fillColor=none;align=left;verticalAlign=top;spacingLeft=4;spacingRight=4;overflow=hidden;rotatable=0;points=[[0,0.5],[1,0.5]];portConstraint=eastwest;" vertex="1" parent="K4UiaTiZzuQG-6o3cde9-1">
          <mxGeometry y="756" width="230" height="22" as="geometry" />
        </mxCell>
        <mxCell id="xZllou36-TDd7HDFL2I0-11" value="+ use_default_subnet_pool: Boolean&#xa;" style="text;strokeColor=none;fillColor=none;align=left;verticalAlign=top;spacingLeft=4;spacingRight=4;overflow=hidden;rotatable=0;points=[[0,0.5],[1,0.5]];portConstraint=eastwest;" vertex="1" parent="K4UiaTiZzuQG-6o3cde9-1">
          <mxGeometry y="778" width="230" height="22" as="geometry" />
        </mxCell>
        <mxCell id="xZllou36-TDd7HDFL2I0-12" value="+ service_types: List&lt;String&gt;&#xa;" style="text;strokeColor=none;fillColor=none;align=left;verticalAlign=top;spacingLeft=4;spacingRight=4;overflow=hidden;rotatable=0;points=[[0,0.5],[1,0.5]];portConstraint=eastwest;" vertex="1" parent="K4UiaTiZzuQG-6o3cde9-1">
          <mxGeometry y="800" width="230" height="22" as="geometry" />
        </mxCell>
        <mxCell id="K4UiaTiZzuQG-6o3cde9-23" value="+ create_at: String&#xa;" style="text;strokeColor=none;fillColor=none;align=left;verticalAlign=top;spacingLeft=4;spacingRight=4;overflow=hidden;rotatable=0;points=[[0,0.5],[1,0.5]];portConstraint=eastwest;" parent="K4UiaTiZzuQG-6o3cde9-1" vertex="1">
          <mxGeometry y="822" width="230" height="22" as="geometry" />
        </mxCell>
        <mxCell id="K4UiaTiZzuQG-6o3cde9-24" value="+ update_at: String&#xa;" style="text;strokeColor=none;fillColor=none;align=left;verticalAlign=top;spacingLeft=4;spacingRight=4;overflow=hidden;rotatable=0;points=[[0,0.5],[1,0.5]];portConstraint=eastwest;" parent="K4UiaTiZzuQG-6o3cde9-1" vertex="1">
          <mxGeometry y="844" width="230" height="22" as="geometry" />
        </mxCell>
        <mxCell id="K4UiaTiZzuQG-6o3cde9-29" value="AllocationPool" style="swimlane;fontStyle=0;childLayout=stackLayout;horizontal=1;startSize=26;fillColor=none;horizontalStack=0;resizeParent=1;resizeParentMax=0;resizeLast=0;collapsible=1;marginBottom=0;" parent="1" vertex="1">
          <mxGeometry x="580" y="830" width="130" height="78" as="geometry">
            <mxRectangle x="530" y="300" width="130" height="26" as="alternateBounds" />
          </mxGeometry>
        </mxCell>
        <mxCell id="K4UiaTiZzuQG-6o3cde9-30" value="+ start: String" style="text;strokeColor=none;fillColor=none;align=left;verticalAlign=top;spacingLeft=4;spacingRight=4;overflow=hidden;rotatable=0;points=[[0,0.5],[1,0.5]];portConstraint=eastwest;" parent="K4UiaTiZzuQG-6o3cde9-29" vertex="1">
          <mxGeometry y="26" width="130" height="26" as="geometry" />
        </mxCell>
        <mxCell id="K4UiaTiZzuQG-6o3cde9-31" value="+ end: String" style="text;strokeColor=none;fillColor=none;align=left;verticalAlign=top;spacingLeft=4;spacingRight=4;overflow=hidden;rotatable=0;points=[[0,0.5],[1,0.5]];portConstraint=eastwest;" parent="K4UiaTiZzuQG-6o3cde9-29" vertex="1">
          <mxGeometry y="52" width="130" height="26" as="geometry" />
        </mxCell>
        <mxCell id="K4UiaTiZzuQG-6o3cde9-33" value="Extends" style="endArrow=block;endSize=16;endFill=0;html=1;exitX=0.5;exitY=0;exitDx=0;exitDy=0;entryX=0.5;entryY=1;entryDx=0;entryDy=0;" parent="1" source="K4UiaTiZzuQG-6o3cde9-1" edge="1" target="K4UiaTiZzuQG-6o3cde9-47">
          <mxGeometry width="160" relative="1" as="geometry">
            <mxPoint x="300" y="30" as="sourcePoint" />
            <mxPoint x="405" y="40" as="targetPoint" />
          </mxGeometry>
        </mxCell>
        <mxCell id="K4UiaTiZzuQG-6o3cde9-37" value="SubnetWebJson" style="swimlane;fontStyle=0;childLayout=stackLayout;horizontal=1;startSize=26;fillColor=none;horizontalStack=0;resizeParent=1;resizeParentMax=0;resizeLast=0;collapsible=1;marginBottom=0;" parent="1" vertex="1">
          <mxGeometry x="80" y="120" width="170" height="52" as="geometry" />
        </mxCell>
        <mxCell id="K4UiaTiZzuQG-6o3cde9-38" value="+ subnet: SubnetEntity" style="text;strokeColor=none;fillColor=none;align=left;verticalAlign=top;spacingLeft=4;spacingRight=4;overflow=hidden;rotatable=0;points=[[0,0.5],[1,0.5]];portConstraint=eastwest;" parent="K4UiaTiZzuQG-6o3cde9-37" vertex="1">
          <mxGeometry y="26" width="170" height="26" as="geometry" />
        </mxCell>
        <mxCell id="K4UiaTiZzuQG-6o3cde9-39" value="" style="endArrow=open;shadow=0;strokeWidth=1;rounded=0;endFill=1;edgeStyle=elbowEdgeStyle;elbow=vertical;" parent="1" source="K4UiaTiZzuQG-6o3cde9-38" target="K4UiaTiZzuQG-6o3cde9-1" edge="1">
          <mxGeometry x="0.5" y="41" relative="1" as="geometry">
            <mxPoint x="160" y="200" as="sourcePoint" />
            <mxPoint x="260" y="200" as="targetPoint" />
            <mxPoint x="-40" y="32" as="offset" />
            <Array as="points">
              <mxPoint x="260" y="159" />
              <mxPoint x="250" y="180" />
              <mxPoint x="270" y="159" />
              <mxPoint x="260" y="139" />
              <mxPoint x="280" y="85" />
            </Array>
          </mxGeometry>
        </mxCell>
        <mxCell id="K4UiaTiZzuQG-6o3cde9-40" value="1" style="resizable=0;align=left;verticalAlign=bottom;labelBackgroundColor=none;fontSize=12;" parent="K4UiaTiZzuQG-6o3cde9-39" connectable="0" vertex="1">
          <mxGeometry x="-1" relative="1" as="geometry">
            <mxPoint x="1" as="offset" />
          </mxGeometry>
        </mxCell>
        <mxCell id="K4UiaTiZzuQG-6o3cde9-41" value="1" style="resizable=0;align=right;verticalAlign=bottom;labelBackgroundColor=none;fontSize=12;" parent="K4UiaTiZzuQG-6o3cde9-39" connectable="0" vertex="1">
          <mxGeometry x="1" relative="1" as="geometry">
            <mxPoint x="-4" as="offset" />
          </mxGeometry>
        </mxCell>
        <mxCell id="K4UiaTiZzuQG-6o3cde9-42" value="VpcWebJson" style="swimlane;fontStyle=0;childLayout=stackLayout;horizontal=1;startSize=26;fillColor=none;horizontalStack=0;resizeParent=1;resizeParentMax=0;resizeLast=0;collapsible=1;marginBottom=0;" parent="1" vertex="1">
          <mxGeometry x="80" y="440" width="170" height="52" as="geometry" />
        </mxCell>
        <mxCell id="K4UiaTiZzuQG-6o3cde9-43" value="+ network: VpcEntity" style="text;strokeColor=none;fillColor=none;align=left;verticalAlign=top;spacingLeft=4;spacingRight=4;overflow=hidden;rotatable=0;points=[[0,0.5],[1,0.5]];portConstraint=eastwest;" parent="K4UiaTiZzuQG-6o3cde9-42" vertex="1">
          <mxGeometry y="26" width="170" height="26" as="geometry" />
        </mxCell>
        <mxCell id="K4UiaTiZzuQG-6o3cde9-47" value="&lt;p style=&quot;margin: 0px ; margin-top: 4px ; text-align: center&quot;&gt;&lt;b&gt;CustomerResource&lt;/b&gt;&lt;/p&gt;&lt;hr size=&quot;1&quot;&gt;&lt;div style=&quot;height: 2px&quot;&gt;&lt;/div&gt;" style="verticalAlign=top;align=left;overflow=fill;fontSize=12;fontFamily=Helvetica;html=1;" parent="1" vertex="1">
          <mxGeometry x="335" y="20" width="140" height="30" as="geometry" />
        </mxCell>
        <mxCell id="K4UiaTiZzuQG-6o3cde9-48" value="SubnetsWebJson" style="swimlane;fontStyle=0;childLayout=stackLayout;horizontal=1;startSize=26;fillColor=none;horizontalStack=0;resizeParent=1;resizeParentMax=0;resizeLast=0;collapsible=1;marginBottom=0;" parent="1" vertex="1">
          <mxGeometry x="50" y="220" width="200" height="52" as="geometry" />
        </mxCell>
        <mxCell id="K4UiaTiZzuQG-6o3cde9-49" value="+ subnets: ArrayList&lt;SubnetEntity&gt;" style="text;strokeColor=none;fillColor=none;align=left;verticalAlign=top;spacingLeft=4;spacingRight=4;overflow=hidden;rotatable=0;points=[[0,0.5],[1,0.5]];portConstraint=eastwest;" parent="K4UiaTiZzuQG-6o3cde9-48" vertex="1">
          <mxGeometry y="26" width="200" height="26" as="geometry" />
        </mxCell>
        <mxCell id="xZllou36-TDd7HDFL2I0-13" value="" style="endArrow=open;shadow=0;strokeWidth=1;rounded=0;endFill=1;edgeStyle=elbowEdgeStyle;elbow=vertical;" edge="1" parent="1" source="K4UiaTiZzuQG-6o3cde9-49" target="K4UiaTiZzuQG-6o3cde9-1">
          <mxGeometry x="0.5" y="41" relative="1" as="geometry">
            <mxPoint x="260" y="169" as="sourcePoint" />
            <mxPoint x="300" y="169" as="targetPoint" />
            <mxPoint x="-40" y="32" as="offset" />
            <Array as="points">
              <mxPoint x="280" y="259" />
              <mxPoint x="260" y="190" />
              <mxPoint x="280" y="169" />
              <mxPoint x="270" y="149" />
              <mxPoint x="290" y="95" />
            </Array>
          </mxGeometry>
        </mxCell>
        <mxCell id="xZllou36-TDd7HDFL2I0-14" value="1" style="resizable=0;align=left;verticalAlign=bottom;labelBackgroundColor=none;fontSize=12;" connectable="0" vertex="1" parent="xZllou36-TDd7HDFL2I0-13">
          <mxGeometry x="-1" relative="1" as="geometry">
            <mxPoint x="1" as="offset" />
          </mxGeometry>
        </mxCell>
        <mxCell id="xZllou36-TDd7HDFL2I0-15" value="*" style="resizable=0;align=right;verticalAlign=bottom;labelBackgroundColor=none;fontSize=12;" connectable="0" vertex="1" parent="xZllou36-TDd7HDFL2I0-13">
          <mxGeometry x="1" relative="1" as="geometry">
            <mxPoint x="-4" as="offset" />
          </mxGeometry>
        </mxCell>
      </root>
    </mxGraphModel>
  </diagram>
</mxfile>
